<?xml version="1.0" ?><!DOCTYPE svg  PUBLIC '-//W3C//DTD SVG 1.1//EN'  'http://www.w3.org/Graphics/SVG/1.1/DTD/svg11.dtd'><svg xmlns="http://www.w3.org/2000/svg" xmlns:xlink="http://www.w3.org/1999/xlink" version="1.1" id="Layer_1" width="32px" height="32px" viewBox="0 0 512 512" enable-background="new 0 0 512 512" xml:space="preserve"><path d="M387.352,487.896c-11.667,0-25.705-5.901-41.726-17.54l-89.489-65.019l-89.49,65.019  c-16.02,11.639-30.058,17.54-41.725,17.54c-9.359,0-17.317-3.859-22.408-10.867c-8.075-11.114-8.276-28.73-0.599-52.358  l34.505-106.198c-17.619-12.543-62.466-44.546-92.656-66.769c-30.432-22.399-32.566-40.055-28.998-50.922  c3.46-10.539,15.02-23.102,50.437-23.102h116.964l36.57-112.549c11.017-33.909,26.419-41.026,37.4-41.026  c10.98,0,26.383,7.118,37.4,41.027l36.569,112.549H447.07c35.315,0,46.791,12.504,50.199,22.994  c3.533,10.876,1.271,28.546-29.582,50.962l-91.865,66.744l34.536,106.291c7.677,23.627,7.475,41.243-0.601,52.358  C404.666,484.036,396.709,487.895,387.352,487.896z M256.137,377.386c2.578,0,5.157,0.796,7.348,2.387l96.837,70.356  c15.858,11.522,24.186,12.766,27.029,12.766c1.773,0,2.069-0.408,2.182-0.562c1.619-2.229,3.088-11.356-2.95-29.938L349.24,317.468  c-1.674-5.15,0.159-10.792,4.54-13.976l99.212-72.082c18.14-13.179,20.809-21.635,20.498-23.022  c-0.525-1.111-6.905-5.708-26.42-5.708H321.024c-5.415,0-10.215-3.487-11.889-8.637L269.761,72.856  c-5.956-18.33-12.12-23.307-13.624-23.738c-1.505,0.431-7.669,5.409-13.624,23.738l-39.377,121.187  c-1.673,5.15-6.473,8.637-11.888,8.637H65.202c-20.445,0-26.365,4.93-26.685,5.901c-0.357,1.089,1.692,9.465,20.066,22.989  c37.925,27.915,99.182,71.406,99.796,71.842c4.457,3.164,6.342,8.857,4.653,14.056l-37.342,114.928  c-6.039,18.584-4.571,27.709-2.952,29.938c0.111,0.153,0.407,0.561,2.183,0.561c2.844,0,11.172-1.244,27.029-12.766l96.838-70.356  C250.98,378.182,253.559,377.386,256.137,377.386z"/></svg>